<svg xmlns="http://www.w3.org/2000/svg" width="608" height="192"><style>line, path, circle, rect, polygon{stroke:black;stroke-width:5;stroke-opacity:1;fill-opacity:1;stroke-linecap:round;stroke-linejoin:miter;}text{font-family:Iosevka Fixed, monospace;font-size:14px;}rect.backdrop{stroke:none;fill:white;}.broken{stroke-dasharray:8;}.filled{fill:black;}.bg_filled{fill:white;}.nofill{fill:white;}.end_marked_arrow{marker-end:url(#arrow);}.start_marked_arrow{marker-start:url(#arrow);}.end_marked_diamond{marker-end:url(#diamond);}.start_marked_diamond{marker-start:url(#diamond);}.end_marked_circle{marker-end:url(#circle);}.start_marked_circle{marker-start:url(#circle);}.end_marked_open_circle{marker-end:url(#open_circle);}.start_marked_open_circle{marker-start:url(#open_circle);}.end_marked_big_open_circle{marker-end:url(#big_open_circle);}.start_marked_big_open_circle{marker-start:url(#big_open_circle);}<!--separator--></style><defs><marker id="arrow" viewBox="-2 -2 8 8" refX="4" refY="2" markerWidth="7" markerHeight="7" orient="auto-start-reverse"><polygon points="0,0 0,4 4,2 0,0"></polygon></marker><marker id="diamond" viewBox="-2 -2 8 8" refX="4" refY="2" markerWidth="7" markerHeight="7" orient="auto-start-reverse"><polygon points="0,2 2,0 4,2 2,4 0,2"></polygon></marker><marker id="circle" viewBox="0 0 8 8" refX="4" refY="4" markerWidth="7" markerHeight="7" orient="auto-start-reverse"><circle cx="4" cy="4" r="2" class="filled"></circle></marker><marker id="open_circle" viewBox="0 0 8 8" refX="4" refY="4" markerWidth="7" markerHeight="7" orient="auto-start-reverse"><circle cx="4" cy="4" r="2" class="bg_filled"></circle></marker><marker id="big_open_circle" viewBox="0 0 8 8" refX="4" refY="4" markerWidth="7" markerHeight="7" orient="auto-start-reverse"><circle cx="4" cy="4" r="3" class="bg_filled"></circle></marker></defs><rect class="backdrop" x="0" y="0" width="608" height="192"></rect><text x="82" y="60" >|</text><line x1="0" y1="64" x2="24" y2="112" class="solid"></line><text x="90" y="76" >|</text><line x1="24" y1="144" x2="32" y2="160" class="solid"></line><g><line x1="20" y1="32" x2="48" y2="32" class="solid"></line><line x1="24" y1="32" x2="32" y2="48" class="solid"></line><line x1="48" y1="32" x2="56" y2="48" class="solid"></line><line x1="56" y1="48" x2="72" y2="48" class="solid"></line><line x1="72" y1="48" x2="76" y2="56" class="solid"></line><line x1="76" y1="56" x2="76" y2="80" class="solid"></line><line x1="4" y1="48" x2="20" y2="48" class="solid"></line><line x1="20" y1="32" x2="20" y2="48" class="solid"></line><line x1="4" y1="48" x2="4" y2="64" class="solid"></line><line x1="8" y1="48" x2="28" y2="88" class="solid"></line><line x1="28" y1="88" x2="28" y2="112" class="solid"></line><line x1="28" y1="96" x2="72" y2="96" class="solid"></line><line x1="28" y1="112" x2="68" y2="112" class="solid"></line><line x1="68" y1="96" x2="68" y2="112" class="solid"></line><line x1="72" y1="96" x2="88" y2="128" class="solid"></line><line x1="28" y1="128" x2="88" y2="128" class="solid"></line><line x1="64" y1="112" x2="72" y2="128" class="solid"></line><line x1="28" y1="128" x2="28" y2="144" class="solid"></line><line x1="32" y1="128" x2="36" y2="136" class="solid"></line><line x1="36" y1="136" x2="36" y2="160" class="solid"></line><line x1="36" y1="144" x2="68" y2="144" class="solid"></line><line x1="36" y1="160" x2="68" y2="160" class="solid"></line><line x1="68" y1="144" x2="68" y2="160" class="solid"></line><line x1="64" y1="160" x2="72" y2="176" class="solid"></line><line x1="40" y1="64" x2="80" y2="64" class="solid"></line><line x1="40" y1="64" x2="48" y2="80" class="solid"></line><line x1="48" y1="80" x2="76" y2="80" class="solid"></line><line x1="80" y1="64" x2="116" y2="136" class="solid"></line><line x1="116" y1="136" x2="116" y2="160" class="solid"></line><line x1="72" y1="144" x2="76" y2="152" class="solid"></line><line x1="76" y1="152" x2="76" y2="176" class="solid"></line><line x1="76" y1="160" x2="116" y2="160" class="solid"></line><line x1="76" y1="176" x2="100" y2="176" class="solid"></line><line x1="96" y1="144" x2="120" y2="144" class="solid"></line><line x1="96" y1="144" x2="100" y2="152" class="solid"></line><line x1="100" y1="152" x2="100" y2="176" class="solid"></line></g><g><line x1="96" y1="32" x2="136" y2="32" class="solid"></line><line x1="96" y1="32" x2="88" y2="48" class="solid"></line><line x1="136" y1="32" x2="172" y2="104" class="solid"></line><line x1="88" y1="48" x2="92" y2="56" class="solid"></line><line x1="92" y1="56" x2="92" y2="64" class="solid"></line><line x1="172" y1="104" x2="172" y2="128" class="solid"></line><line x1="168" y1="32" x2="224" y2="32" class="solid"></line><line x1="168" y1="32" x2="152" y2="64" class="solid"></line><line x1="224" y1="32" x2="260" y2="104" class="solid"></line><line x1="152" y1="64" x2="180" y2="64" class="solid"></line><line x1="240" y1="64" x2="224" y2="96" class="solid"></line><line x1="260" y1="104" x2="260" y2="128" class="solid"></line><line x1="196" y1="128" x2="260" y2="128" class="solid"></line><line x1="236" y1="32" x2="304" y2="32" class="solid"></line><line x1="236" y1="32" x2="236" y2="40" class="solid"></line><line x1="236" y1="40" x2="208" y2="96" class="solid"></line><line x1="240" y1="32" x2="276" y2="104" class="solid"></line><line x1="304" y1="32" x2="340" y2="104" class="solid"></line><line x1="208" y1="96" x2="256" y2="96" class="solid"></line><line x1="276" y1="104" x2="276" y2="128" class="solid"></line><line x1="276" y1="112" x2="344" y2="112" class="solid"></line><line x1="340" y1="104" x2="340" y2="128" class="solid"></line><line x1="276" y1="128" x2="340" y2="128" class="solid"></line><line x1="344" y1="112" x2="352" y2="128" class="solid"></line><line x1="104" y1="48" x2="120" y2="48" class="solid"></line><line x1="104" y1="48" x2="96" y2="64" class="solid"></line><line x1="96" y1="64" x2="116" y2="64" class="solid"></line><line x1="116" y1="48" x2="116" y2="64" class="solid"></line><line x1="120" y1="48" x2="148" y2="104" class="solid"></line><line x1="104" y1="64" x2="96" y2="80" class="solid"></line><line x1="112" y1="64" x2="144" y2="128" class="solid"></line><line x1="148" y1="104" x2="148" y2="128" class="solid"></line><line x1="148" y1="112" x2="176" y2="112" class="solid"></line><line x1="148" y1="128" x2="172" y2="128" class="solid"></line><line x1="184" y1="48" x2="208" y2="48" class="solid"></line><line x1="184" y1="48" x2="180" y2="56" class="solid"></line><line x1="180" y1="56" x2="180" y2="80" class="solid"></line><line x1="188" y1="48" x2="188" y2="64" class="solid"></line><line x1="188" y1="64" x2="200" y2="64" class="solid"></line><line x1="208" y1="48" x2="184" y2="96" class="solid"></line><line x1="160" y1="80" x2="180" y2="80" class="solid"></line><line x1="192" y1="64" x2="184" y2="80" class="solid"></line><line x1="184" y1="96" x2="192" y2="112" class="solid"></line><line x1="192" y1="112" x2="264" y2="112" class="solid"></line><line x1="264" y1="112" x2="272" y2="128" class="solid"></line></g><g><line x1="316" y1="32" x2="384" y2="32" class="solid"></line><line x1="316" y1="32" x2="316" y2="48" class="solid"></line><line x1="320" y1="32" x2="356" y2="104" class="solid"></line><line x1="384" y1="32" x2="420" y2="104" class="solid"></line><line x1="356" y1="104" x2="356" y2="128" class="solid"></line><line x1="356" y1="128" x2="444" y2="128" class="solid"></line><line x1="464" y1="32" x2="520" y2="32" class="solid"></line><line x1="464" y1="32" x2="424" y2="112" class="solid"></line><line x1="488" y1="32" x2="448" y2="112" class="solid"></line><line x1="492" y1="32" x2="492" y2="40" class="solid"></line><line x1="492" y1="40" x2="448" y2="128" class="solid"></line><line x1="496" y1="32" x2="532" y2="104" class="solid"></line><line x1="520" y1="32" x2="536" y2="64" class="solid"></line><line x1="488" y1="48" x2="528" y2="128" class="solid"></line><line x1="356" y1="112" x2="444" y2="112" class="solid"></line><line x1="420" y1="104" x2="420" y2="112" class="solid"></line><line x1="532" y1="104" x2="532" y2="128" class="solid"></line><line x1="532" y1="112" x2="560" y2="112" class="solid"></line><line x1="560" y1="112" x2="568" y2="128" class="solid"></line><line x1="544" y1="80" x2="560" y2="80" class="solid"></line><line x1="544" y1="80" x2="556" y2="104" class="solid"></line><line x1="560" y1="80" x2="572" y2="104" class="solid"></line><line x1="556" y1="104" x2="556" y2="128" class="solid"></line><line x1="572" y1="104" x2="572" y2="128" class="solid"></line><line x1="572" y1="112" x2="600" y2="112" class="solid"></line><line x1="532" y1="128" x2="556" y2="128" class="solid"></line><line x1="572" y1="128" x2="596" y2="128" class="solid"></line><line x1="532" y1="32" x2="560" y2="32" class="solid"></line><line x1="532" y1="32" x2="532" y2="40" class="solid"></line><line x1="532" y1="40" x2="544" y2="64" class="solid"></line><line x1="536" y1="32" x2="552" y2="64" class="solid"></line><line x1="560" y1="32" x2="596" y2="104" class="solid"></line><line x1="596" y1="104" x2="596" y2="128" class="solid"></line></g><g><line x1="272" y1="48" x2="288" y2="48" class="solid"></line><line x1="272" y1="48" x2="296" y2="96" class="solid"></line><line x1="284" y1="48" x2="284" y2="56" class="solid"></line><line x1="284" y1="56" x2="304" y2="96" class="solid"></line><line x1="288" y1="48" x2="312" y2="96" class="solid"></line></g><g><line x1="352" y1="48" x2="368" y2="48" class="solid"></line><line x1="352" y1="48" x2="376" y2="96" class="solid"></line><line x1="364" y1="48" x2="364" y2="56" class="solid"></line><line x1="364" y1="56" x2="384" y2="96" class="solid"></line><line x1="368" y1="48" x2="392" y2="96" class="solid"></line></g><g><line x1="180" y1="96" x2="180" y2="104" class="solid"></line><line x1="180" y1="104" x2="192" y2="128" class="solid"></line></g></svg>